<?xml version="1.0" encoding="UTF-8"?>
<!DOCTYPE svg PUBLIC "-//W3C//DTD SVG 1.1//EN" "http://www.w3.org/Graphics/SVG/1.1/DTD/svg11.dtd">
<svg xmlns="http://www.w3.org/2000/svg" version="1.1" width="96px" height="96px" style="shape-rendering:geometricPrecision; text-rendering:geometricPrecision; image-rendering:optimizeQuality; fill-rule:evenodd; clip-rule:evenodd" xmlns:xlink="http://www.w3.org/1999/xlink">
<g><path style="opacity:0.468" fill="#fe9900" d="M 27.5,-0.5 C 40.8333,-0.5 54.1667,-0.5 67.5,-0.5C 67.5,1.83333 67.5,4.16667 67.5,6.5C 63.8333,6.5 60.1667,6.5 56.5,6.5C 56.5,7.5 56.5,8.5 56.5,9.5C 66.1667,9.5 75.8333,9.5 85.5,9.5C 85.5,19.1667 85.5,28.8333 85.5,38.5C 86.5,38.5 87.5,38.5 88.5,38.5C 88.5,34.8333 88.5,31.1667 88.5,27.5C 90.8333,27.5 93.1667,27.5 95.5,27.5C 95.5,40.8333 95.5,54.1667 95.5,67.5C 93.1667,67.5 90.8333,67.5 88.5,67.5C 88.5,63.8333 88.5,60.1667 88.5,56.5C 87.5,56.5 86.5,56.5 85.5,56.5C 85.5,66.1667 85.5,75.8333 85.5,85.5C 75.8333,85.5 66.1667,85.5 56.5,85.5C 56.5,86.5 56.5,87.5 56.5,88.5C 60.1667,88.5 63.8333,88.5 67.5,88.5C 67.5,90.8333 67.5,93.1667 67.5,95.5C 54.1667,95.5 40.8333,95.5 27.5,95.5C 27.2436,93.2075 27.5769,91.0408 28.5,89C 31.8168,88.5017 35.1501,88.335 38.5,88.5C 38.5,87.5 38.5,86.5 38.5,85.5C 28.8333,85.5 19.1667,85.5 9.5,85.5C 9.5,75.8333 9.5,66.1667 9.5,56.5C 8.5,56.5 7.5,56.5 6.5,56.5C 6.5,60.1667 6.5,63.8333 6.5,67.5C 4.16667,67.5 1.83333,67.5 -0.5,67.5C -0.5,54.1667 -0.5,40.8333 -0.5,27.5C 1.83333,27.5 4.16667,27.5 6.5,27.5C 6.5,31.1667 6.5,34.8333 6.5,38.5C 7.5,38.5 8.5,38.5 9.5,38.5C 9.5,28.8333 9.5,19.1667 9.5,9.5C 19.1667,9.5 28.8333,9.5 38.5,9.5C 38.5,8.5 38.5,7.5 38.5,6.5C 34.8333,6.5 31.1667,6.5 27.5,6.5C 27.5,4.16667 27.5,1.83333 27.5,-0.5 Z M 53.5,13.5 C 49.5,13.5 45.5,13.5 41.5,13.5C 41.5,9.83333 41.5,6.16667 41.5,2.5C 45.5,2.5 49.5,2.5 53.5,2.5C 53.5,6.16667 53.5,9.83333 53.5,13.5 Z M 41.5,13.5 C 19.2348,20.6906 11.0681,35.6906 17,58.5C 26.0473,76.2709 40.214,82.4376 59.5,77C 75.9995,68.834 82.4995,55.6673 79,37.5C 74.7827,24.7781 66.2827,16.7781 53.5,13.5C 62.8333,13.5 72.1667,13.5 81.5,13.5C 81.5,22.8333 81.5,32.1667 81.5,41.5C 85.1667,41.5 88.8333,41.5 92.5,41.5C 92.5,45.5 92.5,49.5 92.5,53.5C 88.8333,53.5 85.1667,53.5 81.5,53.5C 81.5,62.8333 81.5,72.1667 81.5,81.5C 72.1667,81.5 62.8333,81.5 53.5,81.5C 53.5,85.1667 53.5,88.8333 53.5,92.5C 49.5,92.5 45.5,92.5 41.5,92.5C 41.5,88.8333 41.5,85.1667 41.5,81.5C 32.1667,81.5 22.8333,81.5 13.5,81.5C 13.5,72.1667 13.5,62.8333 13.5,53.5C 9.83333,53.5 6.16667,53.5 2.5,53.5C 2.5,49.5 2.5,45.5 2.5,41.5C 6.16667,41.5 9.83333,41.5 13.5,41.5C 13.5,32.1667 13.5,22.8333 13.5,13.5C 22.8333,13.5 32.1667,13.5 41.5,13.5 Z M 40.5,17.5 C 65.1143,16.2813 76.9477,27.948 76,52.5C 69.8664,70.6127 57.3664,77.7794 38.5,74C 19.5496,65.2415 14.0496,51.0748 22,31.5C 26.526,24.5054 32.6926,19.8387 40.5,17.5 Z"/></g>
<g><path style="opacity:0.456" fill="#fe9900" d="M 41.5,13.5 C 45.5,13.5 49.5,13.5 53.5,13.5C 66.2827,16.7781 74.7827,24.7781 79,37.5C 82.4995,55.6673 75.9995,68.834 59.5,77C 40.214,82.4376 26.0473,76.2709 17,58.5C 11.0681,35.6906 19.2348,20.6906 41.5,13.5 Z M 40.5,17.5 C 32.6926,19.8387 26.526,24.5054 22,31.5C 14.0496,51.0748 19.5496,65.2415 38.5,74C 57.3664,77.7794 69.8664,70.6127 76,52.5C 76.9477,27.948 65.1143,16.2813 40.5,17.5 Z"/></g>
<g><path style="opacity:0.418" fill="#fe9900" d="M 45.5,20.5 C 47.4918,20.3285 49.1585,20.9951 50.5,22.5C 54.44,20.7639 56.1067,22.0972 55.5,26.5C 53.8333,26.5 52.1667,26.5 50.5,26.5C 50.6495,25.448 50.4828,24.448 50,23.5C 48.6883,25.6576 47.0217,25.9909 45,24.5C 43.5993,26.1922 41.7659,26.8588 39.5,26.5C 38.8933,22.0972 40.56,20.7639 44.5,22.5C 45.2975,22.0431 45.6309,21.3764 45.5,20.5 Z"/></g>
<g><path style="opacity:0.517" fill="#fe9900" d="M 43.5,27.5 C 44.5983,28.6009 44.765,29.9343 44,31.5C 40.2905,43.4707 36.1239,55.1373 31.5,66.5C 29.457,65.4206 28.1237,63.754 27.5,61.5C 32.3173,49.8681 37.6506,38.5348 43.5,27.5 Z"/></g>
<g><path style="opacity:0.529" fill="#fe9900" d="M 50.5,27.5 C 51.4584,27.9528 52.2917,28.6195 53,29.5C 57.5592,40.2855 62.3925,50.9522 67.5,61.5C 66.8763,63.754 65.543,65.4206 63.5,66.5C 62.914,66.2907 62.414,65.9574 62,65.5C 57.8544,52.8988 54.021,40.2322 50.5,27.5 Z"/></g>
<g><path style="opacity:0.563" fill="#fe9900" d="M 46.5,28.5 C 48.2501,31.3554 49.0835,34.6887 49,38.5C 49.8717,49.4855 50.3717,60.4855 50.5,71.5C 48.1667,71.5 45.8333,71.5 43.5,71.5C 44.7067,57.1938 45.7067,42.8605 46.5,28.5 Z"/></g>
</svg>
